<svg aria-hidden="true" style="position: absolute; width: 0; height: 0; overflow: hidden;" version="1.1" xmlns="http://www.w3.org/2000/svg" xmlns:xlink="http://www.w3.org/1999/xlink">
<defs>
<symbol id="icon-User" viewBox="0 0 32 32">
<path  stroke-linejoin="miter" stroke-linecap="butt" stroke-miterlimit="4" stroke-width="2" d="M6.667 25.481c0-3.217 2.263-5.957 5.339-6.464l0.277-0.047c1.118-0.194 2.405-0.304 3.717-0.304s2.6 0.111 3.852 0.323l-0.135-0.019 0.277 0.047c3.076 0.507 5.339 3.247 5.339 6.464 0 1.391-1.092 2.519-2.437 2.519h-13.792c-1.347 0-2.437-1.128-2.437-2.519zM21.444 9.251c0 2.899-2.437 5.249-5.444 5.249s-5.444-2.351-5.444-5.251c0-2.897 2.437-5.249 5.444-5.249s5.444 2.351 5.444 5.251z"></path>
</symbol>
<symbol id="icon-Bag" viewBox="0 0 32 32">
<path  d="M6.204 22.728v0zM5.741 15.261v-0.001zM26.259 15.261v-0.001zM25.796 22.728v0zM18.716 27.791l-0.155-0.988 0.155 0.987zM13.285 27.791v0zM10.776 10.38v0zM21.224 10.38v0zM12.287 27.635v0zM6.328 23.031v0zM19.715 27.635l0.152 0.988-0.153-0.987zM25.672 23.031v0zM26.156 14.884l-0.964 0.264 0.964-0.263zM5.844 14.884l0.964 0.264-0.964-0.263zM20.236 10.701h0.001zM19.036 10.945c-0.053 0.118-0.084 0.257-0.084 0.402 0 0.552 0.448 1 1 1 0.407 0 0.757-0.243 0.913-0.592l0.003-0.006-1.831-0.804zM11.763 10.701v0zM11.132 11.749c0.154 0.367 0.51 0.62 0.925 0.62 0.552 0 1-0.448 1-1 0-0.154-0.035-0.3-0.097-0.43l0.003 0.006-1.831 0.804zM14.991 4.099v0zM15.147 4.072v0zM16.853 4.072v0zM17.009 4.099v0zM20.567 7.397v0zM11.433 7.397v0.001zM19.56 26.647l-0.999 0.156 0.307 1.976 1-0.156-0.308-1.976zM13.439 26.803l-0.999-0.156-0.307 1.976 0.997 0.156 0.307-1.976zM25.192 15.148l0.101 0.375 1.931-0.524-0.103-0.376-1.929 0.525zM24.871 22.349l-0.124 0.304 1.851 0.756 0.124-0.303-1.851-0.757zM7.253 22.653l-0.124-0.303-1.851 0.757 0.124 0.303 1.851-0.756zM6.707 15.524l0.101-0.375-1.929-0.525-0.103 0.375 1.931 0.525zM7.129 22.351c-0.503-1.193-0.796-2.58-0.796-4.035 0-0.993 0.136-1.954 0.391-2.866l-0.018 0.075-1.931-0.524c-0.281 0.994-0.443 2.135-0.443 3.314 0 1.729 0.347 3.377 0.976 4.877l-0.031-0.083 1.851-0.757zM25.293 15.524c0.237 0.837 0.373 1.798 0.373 2.791 0 1.455-0.292 2.842-0.822 4.105l0.026-0.070 1.851 0.757c0.598-1.417 0.945-3.065 0.945-4.794 0-1.179-0.162-2.32-0.464-3.403l0.021 0.089-1.931 0.524zM18.561 26.804c-1.696 0.263-3.427 0.263-5.123 0l-0.307 1.976c1.899 0.295 3.837 0.295 5.737 0l-0.307-1.976zM10.975 11.36c1.511-0.32 3.247-0.503 5.025-0.503s3.515 0.183 5.19 0.531l-0.164-0.029 0.396-1.96c-1.63-0.345-3.503-0.543-5.421-0.543s-3.791 0.198-5.599 0.573l0.178-0.031 0.396 1.96zM12.441 26.647c-2.369-0.368-4.332-1.9-5.187-3.993l-1.853 0.756c1.135 2.773 3.703 4.743 6.731 5.213l0.308-1.976zM19.868 28.623c3.027-0.471 5.596-2.44 6.729-5.213l-1.851-0.756c-0.856 2.093-2.819 3.625-5.187 3.993l0.307 1.976zM21.025 11.361c2.053 0.415 3.653 1.896 4.167 3.787l1.929-0.525c-0.723-2.657-2.944-4.664-5.7-5.223l-0.396 1.96zM10.579 9.4c-2.756 0.557-4.977 2.564-5.7 5.221l1.929 0.525c0.515-1.891 2.113-3.372 4.167-3.787l-0.396-1.96zM19.321 10.297l-0.284 0.647 1.831 0.804 0.284-0.645-1.831-0.805zM10.848 11.103l0.284 0.645 1.831-0.804-0.284-0.647-1.831 0.805zM15.159 5.084l0.157-0.027-0.337-1.973-0.156 0.027 0.336 1.973zM16.684 5.057l0.157 0.027 0.336-1.973-0.156-0.027-0.337 1.973zM19.591 7.611c0.064 0.28 0.101 0.601 0.101 0.931 0 0.635-0.136 1.239-0.381 1.783l0.011-0.027 1.831 0.805c0.544-1.237 0.68-2.605 0.392-3.92l-1.953 0.428zM10.457 7.181c-0.094 0.409-0.148 0.879-0.148 1.362 0 0.926 0.198 1.805 0.555 2.598l-0.016-0.040 1.831-0.804c-0.234-0.517-0.37-1.12-0.37-1.755 0-0.33 0.037-0.652 0.107-0.961l-0.005 0.029-1.953-0.429zM15.316 5.056c0.453-0.076 0.916-0.076 1.368 0l0.337-1.971c-0.307-0.055-0.661-0.087-1.021-0.087s-0.714 0.031-1.058 0.092l0.036-0.005 0.337 1.971zM21.543 7.181c-0.463-2.109-2.208-3.701-4.365-4.069l-0.336 1.972c1.4 0.239 2.469 1.256 2.749 2.527l1.953-0.429zM12.409 7.611c0.28-1.271 1.349-2.288 2.749-2.527l-0.336-1.973c-2.157 0.369-3.903 1.961-4.367 4.071l1.953 0.429z"></path>
</symbol>
<symbol id="icon-Search" viewBox="0 0 32 32">
<path  d="M4.421 18.375v0zM4.421 11.099v0zM25.052 11.099v0zM25.052 18.375v0zM18.375 25.052v0zM11.099 25.052v0zM11.099 4.421v0zM18.375 4.421v0zM27.293 28.707c0.183 0.196 0.443 0.318 0.732 0.318 0.552 0 1-0.448 1-1 0-0.289-0.122-0.549-0.318-0.731l-0.001-0.001-1.413 1.413zM5.395 18.147c-0.251-1.024-0.395-2.2-0.395-3.41s0.144-2.386 0.415-3.512l-0.021 0.102-1.947-0.456c-0.284 1.162-0.447 2.495-0.447 3.867s0.163 2.705 0.471 3.982l-0.023-0.116 1.947-0.457zM24.079 11.327c0.251 1.024 0.395 2.2 0.395 3.41s-0.144 2.386-0.415 3.512l0.021-0.102 1.947 0.456c0.284-1.162 0.447-2.495 0.447-3.867s-0.163-2.705-0.471-3.982l0.023 0.116-1.947 0.457zM18.145 24.079c-1.024 0.251-2.2 0.395-3.409 0.395s-2.385-0.144-3.511-0.415l0.102 0.021-0.456 1.947c2.543 0.597 5.189 0.597 7.733 0l-0.457-1.947zM11.328 5.395c1.024-0.251 2.2-0.395 3.41-0.395s2.386 0.144 3.512 0.415l-0.102-0.021 0.456-1.947c-1.162-0.284-2.495-0.447-3.867-0.447s-2.705 0.163-3.982 0.471l0.116-0.023 0.457 1.947zM11.328 24.079c-2.948-0.708-5.225-2.986-5.922-5.879l-0.011-0.054-1.947 0.457c0.886 3.688 3.736 6.538 7.356 7.41l0.068 0.014 0.456-1.947zM18.604 26.025c3.688-0.886 6.538-3.735 7.41-7.355l0.014-0.068-1.947-0.456c-0.708 2.948-2.986 5.225-5.879 5.922l-0.054 0.011 0.456 1.947zM18.147 5.395c2.948 0.708 5.225 2.986 5.922 5.879l0.011 0.054 1.947-0.457c-0.886-3.688-3.736-6.537-7.356-7.409l-0.068-0.014-0.456 1.947zM10.871 3.448c-3.687 0.886-6.536 3.735-7.409 7.355l-0.014 0.068 1.947 0.456c0.708-2.948 2.986-5.225 5.879-5.922l0.054-0.011-0.457-1.947zM22.407 23.821l4.887 4.885 1.413-1.413-4.887-4.887-1.413 1.413z"></path>
</symbol>
<symbol id="icon-google" viewBox="0 0 32 32">
<path  d="M30.009 13.265c0.182 0.976 0.281 1.997 0.281 3.062 0 8.332-5.576 14.256-13.998 14.256-1.915 0.001-3.812-0.376-5.582-1.109s-3.378-1.807-4.732-3.161-2.429-2.962-3.161-4.732c-0.733-1.77-1.109-3.666-1.109-5.582-0.001-1.915 0.376-3.812 1.109-5.582s1.807-3.378 3.161-4.732c1.354-1.354 2.962-2.429 4.732-3.161s3.666-1.109 5.582-1.109c3.938 0 7.228 1.449 9.753 3.801l-4.111 4.111v-0.010c-1.53-1.458-3.473-2.206-5.641-2.206-4.812 0-8.723 4.065-8.723 8.879 0 4.812 3.911 8.886 8.723 8.886 4.366 0 7.338-2.496 7.948-5.924h-7.948v-5.687h13.717z"></path>
</symbol>
<symbol id="icon-instagram" viewBox="0 0 32 32">
<path  d="M28.675 10.755c-0.016-1.134-0.233-2.212-0.617-3.207l0.021 0.063c-0.679-1.721-2.015-3.058-3.692-3.722l-0.044-0.015c-0.92-0.356-1.983-0.572-3.094-0.595l-0.010-0c-1.363-0.062-1.795-0.078-5.262-0.078-3.464 0-3.909 0-5.264 0.078-1.12 0.024-2.182 0.24-3.165 0.617l0.064-0.022c-1.723 0.678-3.061 2.016-3.725 3.693l-0.015 0.044c-0.356 0.919-0.572 1.981-0.593 3.092l-0 0.009c-0.059 1.366-0.078 1.8-0.078 5.264 0 3.467 0 3.91 0.080 5.267 0.022 1.121 0.238 2.184 0.615 3.168l-0.022-0.064c0.68 1.72 2.018 3.056 3.695 3.719l0.044 0.015c0.916 0.37 1.976 0.601 3.085 0.64l0.016 0c1.366 0.059 1.8 0.078 5.264 0.078 3.467 0 3.91 0 5.266-0.080 1.121-0.022 2.184-0.238 3.168-0.615l-0.064 0.022c1.72-0.68 3.056-2.017 3.721-3.693l0.015-0.044c0.356-0.92 0.573-1.983 0.595-3.094l0-0.010c0.061-1.365 0.080-1.798 0.080-5.264-0.003-3.467-0.003-3.907-0.083-5.264zM15.968 22.531c-3.623 0-6.56-2.937-6.56-6.56v0c0-3.623 2.937-6.56 6.56-6.56s6.56 2.937 6.56 6.56c0 3.623-2.937 6.56-6.56 6.56v0zM22.79 10.696c-0.015 0.001-0.033 0.001-0.050 0.001-0.845 0-1.53-0.685-1.53-1.53s0.685-1.53 1.53-1.53c0.017 0 0.034 0 0.051 0.001l-0.002-0c0.824 0.027 1.481 0.701 1.481 1.529s-0.656 1.501-1.477 1.529l-0.003 0z"></path>
<path  d="M15.992 19.976c2.211 0 4.004-1.793 4.004-4.004s-1.793-4.004-4.004-4.004v0c-2.211 0-4.004 1.793-4.004 4.004s1.793 4.004 4.004 4.004v0z"></path>
</symbol>
<symbol id="icon-linkedin" viewBox="0 0 32 32">
<path  d="M3.2 5.034c0-1.013 0.842-1.834 1.88-1.834h21.84c1.038 0 1.88 0.821 1.88 1.834v21.933c0 1.013-0.842 1.834-1.88 1.834h-21.84c-1.038 0-1.88-0.821-1.88-1.834v-21.933zM11.109 24.63v-11.56h-3.842v11.56h3.842zM9.189 11.491c1.339 0 2.173-0.886 2.173-1.997-0.024-1.134-0.832-1.997-2.147-1.997s-2.174 0.864-2.174 1.997c0 1.11 0.834 1.997 2.123 1.997h0.026zM17.042 24.63v-6.456c0-0.346 0.026-0.691 0.128-0.938 0.277-0.69 0.909-1.405 1.971-1.405 1.39 0 1.946 1.059 1.946 2.614v6.184h3.842v-6.63c0-3.552-1.894-5.203-4.422-5.203-2.038 0-2.952 1.12-3.464 1.909v0.040h-0.026c0.008-0.013 0.017-0.027 0.026-0.040v-1.635h-3.84c0.048 1.085 0 11.56 0 11.56h3.84z"></path>
</symbol>
<symbol id="icon-twitter" viewBox="0 0 32 32">
<path  d="M31.525 6.583c-1.113 0.493-2.309 0.827-3.567 0.977 1.297-0.776 2.268-1.998 2.731-3.437-1.219 0.724-2.553 1.234-3.944 1.507-0.936-0.999-2.175-1.661-3.525-1.883s-2.736 0.007-3.943 0.653c-1.206 0.646-2.166 1.672-2.729 2.919s-0.699 2.645-0.387 3.978c-2.47-0.124-4.886-0.766-7.091-1.884s-4.151-2.688-5.711-4.607c-0.533 0.92-0.84 1.987-0.84 3.123-0.001 1.023 0.251 2.030 0.733 2.932s1.179 1.671 2.030 2.239c-0.986-0.031-1.951-0.298-2.813-0.777v0.080c-0 1.434 0.496 2.825 1.404 3.935s2.172 1.872 3.578 2.156c-0.915 0.248-1.874 0.284-2.805 0.107 0.397 1.234 1.169 2.313 2.21 3.087s2.297 1.202 3.593 1.225c-2.2 1.727-4.917 2.664-7.715 2.66-0.495 0-0.991-0.029-1.483-0.087 2.839 1.826 6.144 2.794 9.52 2.791 11.427 0 17.673-9.464 17.673-17.672 0-0.267-0.007-0.536-0.019-0.803 1.215-0.879 2.264-1.967 3.097-3.213l0.003-0.004z"></path>
</symbol>
<symbol id="icon-arrow" viewBox="0 0 32 32">
<path d="M31.528 1.684c0-0.698-0.566-1.263-1.263-1.263v0h-11.368c-0.698 0-1.263 0.566-1.263 1.263s0.566 1.263 1.263 1.263v0h10.105v10.105c0 0.698 0.566 1.263 1.263 1.263s1.263-0.566 1.263-1.263v0-11.368zM2.577 31.158l28.581-28.581-1.785-1.785-28.581 28.581 1.785 1.785z"></path>
</symbol>

<symbol id="icon-uber" viewBox="0 0 48 32">
<path d="M2.762 19.237c0.198 0.535 0.484 0.994 0.845 1.383l-0.002-0.003c0.35 0.373 0.775 0.67 1.252 0.869l0.024 0.009c0.491 0.203 1.026 0.304 1.603 0.304 0.562 0 1.089-0.105 1.58-0.316 0.503-0.217 0.931-0.517 1.286-0.888l0.001-0.001c0.363-0.382 0.653-0.838 0.845-1.342l0.009-0.028c0.203-0.531 0.305-1.123 0.305-1.779v-10.113h2.457v16.386h-2.434v-1.522c-0.532 0.563-1.175 1.014-1.894 1.321l-0.037 0.014c-0.741 0.312-1.541 0.468-2.4 0.468-0.873 0-1.689-0.152-2.445-0.457-0.768-0.308-1.422-0.748-1.966-1.298l-0-0c-0.553-0.562-0.991-1.237-1.311-2.025s-0.48-1.665-0.48-2.633v-10.253h2.458v10.113c0 0.655 0.101 1.252 0.304 1.791zM17.205 7.333v5.969c0.533-0.533 1.161-0.97 1.857-1.284l0.039-0.016c0.718-0.319 1.499-0.479 2.341-0.479 0.873 0 1.693 0.164 2.457 0.491 0.773 0.331 1.433 0.781 1.99 1.335l-0-0c0.553 0.557 1.004 1.217 1.318 1.949l0.016 0.041c0.311 0.709 0.492 1.535 0.492 2.403 0 0.011-0 0.022-0 0.033v-0.002c0 0.011 0 0.024 0 0.036 0 0.863-0.181 1.683-0.507 2.425l0.015-0.039c-0.332 0.768-0.782 1.424-1.334 1.978l0-0c-0.557 0.554-1.217 1.004-1.949 1.319l-0.041 0.016c-0.712 0.311-1.542 0.491-2.414 0.491-0.015 0-0.031-0-0.046-0h0.002c-0.843 0-1.627-0.16-2.353-0.48-0.74-0.328-1.372-0.765-1.907-1.299l0 0v1.499h-2.342v-16.386h2.364zM17.474 19.389c0.216 0.51 0.512 0.945 0.878 1.311l-0-0c0.367 0.367 0.802 0.666 1.284 0.879l0.027 0.011c0.5 0.219 1.038 0.328 1.615 0.328 0.562 0 1.093-0.109 1.591-0.328 0.506-0.221 0.937-0.521 1.299-0.889l0.001-0.001c0.36-0.369 0.655-0.803 0.866-1.283l0.011-0.028c0.219-0.5 0.328-1.038 0.328-1.615s-0.109-1.12-0.328-1.627c-0.22-0.512-0.516-0.951-0.879-1.324l0.001 0.001c-0.367-0.375-0.8-0.667-1.299-0.878-0.463-0.2-1.003-0.316-1.569-0.316-0.008 0-0.016 0-0.023 0h0.001c-0.562 0-1.093 0.105-1.592 0.316-0.51 0.216-0.945 0.512-1.311 0.878l0-0c-0.368 0.37-0.668 0.809-0.879 1.295l-0.010 0.027c-0.207 0.472-0.328 1.022-0.328 1.601 0 0.009 0 0.018 0 0.028v-0.001c0 0.577 0.105 1.116 0.316 1.615zM29.049 15.363c0.32-0.766 0.754-1.422 1.289-1.98l-0.002 0.002c0.54-0.561 1.185-1.015 1.905-1.332l0.038-0.015c0.749-0.327 1.561-0.491 2.435-0.491 0.858 0 1.654 0.156 2.387 0.469 0.741 0.315 1.371 0.754 1.894 1.297l0.002 0.002c0.523 0.55 0.944 1.204 1.227 1.926l0.014 0.040c0.297 0.757 0.445 1.58 0.445 2.469v0.773h-9.715c0.16 0.974 0.646 1.813 1.341 2.419l0.005 0.004c0.339 0.294 0.734 0.535 1.166 0.704l0.027 0.009c0.414 0.163 0.893 0.258 1.395 0.258 0.008 0 0.015-0 0.023-0h-0.001c1.42 0 2.567-0.585 3.441-1.755l1.709 1.264c-0.581 0.78-1.316 1.411-2.165 1.856l-0.035 0.017c-0.875 0.452-1.857 0.679-2.95 0.679-0.889 0-1.72-0.156-2.493-0.468-0.783-0.316-1.452-0.76-2.014-1.312l0.001 0.001c-0.558-0.552-1.012-1.209-1.33-1.938l-0.016-0.040c-0.328-0.757-0.491-1.58-0.491-2.469 0-0.843 0.156-1.639 0.468-2.387zM32.338 14.438c-0.663 0.553-1.104 1.291-1.323 2.212h7.28c-0.203-0.921-0.636-1.658-1.299-2.213-0.663-0.553-1.439-0.831-2.329-0.831s-1.667 0.277-2.329 0.831zM45.107 14.707c-0.499 0.547-0.749 1.287-0.749 2.224v6.789h-2.364v-11.94h2.34v1.475c0.29-0.475 0.681-0.862 1.144-1.139l0.015-0.008c0.476-0.281 1.042-0.421 1.697-0.421h0.819v2.2h-0.983c-0.78 0-1.42 0.273-1.92 0.82z"></path>
</symbol>

<symbol id="icon-miro" viewBox="0 0 64 32">
<path d="M27.307 10.153c1.169-0.222 2.339-0.456 3.497-0.678-0.012 5.18-0.012 10.349 0 15.517-1.158-0.234-2.327-0.48-3.485-0.702-0.035-0.456-0.012-0.912-0.012-1.368-0.011-4.245-0.011-8.501 0-12.769zM55.593 12.445c-0.982 0.023-1.988 0.327-2.748 0.959-0.631 0.515-1.087 1.216-1.345 1.988-0.28 0.83-0.339 1.731-0.233 2.607 0.117 1.006 0.514 2 1.215 2.737 0.55 0.585 1.298 0.993 2.082 1.169 0.982 0.222 2.047 0.187 2.97-0.245 0.678-0.305 1.24-0.842 1.637-1.473 0.445-0.713 0.667-1.544 0.737-2.386 0.082-0.947-0.023-1.917-0.373-2.807-0.305-0.795-0.854-1.508-1.591-1.964-0.702-0.433-1.532-0.62-2.351-0.585zM55.079 9.183c1.696-0.117 3.473 0.199 4.935 1.099 0.826 0.514 1.515 1.166 2.055 1.931l0.015 0.022c0.48 0.701 0.83 1.485 1.076 2.303 0.257 0.877 0.351 1.801 0.362 2.713 0 1.672-0.385 3.379-1.309 4.794-0.817 1.257-1.997 2.218-3.39 2.744l-0.048 0.016c-0.912 0.339-1.871 0.503-2.841 0.527-1.825 0.035-3.707-0.41-5.192-1.485-1.263-0.901-2.187-2.222-2.655-3.695-0.327-0.983-0.456-2.035-0.444-3.075 0.011-1.813 0.538-3.66 1.672-5.087 0.924-1.181 2.245-2.023 3.683-2.444 0.667-0.211 1.368-0.327 2.081-0.363zM4.949 9.873c0.841-0.491 1.812-0.725 2.783-0.713 1.617 0.072 3.031 0.883 3.919 2.102l0.010 0.015c0.456-0.62 1.087-1.099 1.765-1.439 1.532-0.737 3.391-0.853 4.97-0.21 0.762 0.315 1.404 0.784 1.912 1.373l0.006 0.007c0.527 0.619 0.877 1.368 1.088 2.14 0.222 0.807 0.28 1.648 0.257 2.479v9.378c-1.158-0.233-2.327-0.48-3.497-0.701-0.012-2.993 0-5.987-0.012-8.981 0.012-0.69-0.233-1.392-0.725-1.871-0.527-0.538-1.298-0.795-2.047-0.783-0.667-0.012-1.345 0.187-1.871 0.608-0.597 0.468-0.912 1.24-0.912 2v9.729c-1.169-0.233-2.339-0.48-3.508-0.701-0.012-0.959 0-1.93-0.012-2.9v-6.046c0.023-0.69-0.211-1.403-0.701-1.894-0.433-0.445-1.029-0.702-1.625-0.772-0.573-0.059-1.158-0.011-1.696 0.211-0.573 0.242-1.026 0.673-1.291 1.213l-0.007 0.015c-0.162 0.344-0.257 0.748-0.257 1.173 0 0.007 0 0.014 0 0.021v-0.001 7.577c0.011 0.701-0.012 1.403 0.011 2.105-1.169-0.222-2.327-0.48-3.485-0.69-0.023-0.409 0.012-0.83-0.023-1.228 0.012-0.467 0.012-0.935 0-1.403 0.035-0.433 0-0.877 0.012-1.31v-3.719c-0.012-0.771 0.011-1.555-0.012-2.327 0.012-0.433 0.012-0.877 0-1.31 0.023-0.865 0.012-1.719 0.012-2.584 0.011-0.082-0.059-0.211 0.035-0.257 1.158-0.222 2.304-0.445 3.461-0.667-0.011 0.527 0 1.053 0 1.579 0.409-0.491 0.889-0.912 1.438-1.216zM43.093 9.393l1.695-0.28v3.648c-0.561 0.105-1.123 0.211-1.684 0.304-0.842 0.14-1.719 0.387-2.35 0.994-0.515 0.48-0.76 1.181-0.807 1.871-0.035 0.491-0.012 0.982-0.012 1.485v7.578c0.427 0.042-0.561-0.161-1.551-0.358l-1.372-0.227c-0.187-0.035-0.363-0.081-0.561-0.105-0.047-0.269-0.012-0.538-0.023-0.807v-8.059c0.023-0.842 0.163-1.695 0.514-2.479 0.34-0.784 0.936-1.45 1.637-1.941 0.935-0.643 2.023-1.029 3.122-1.321 0.468-0.105 0.912-0.233 1.392-0.304zM28.71 2.693c0.561-0.070 1.169-0.011 1.649 0.327 0.55 0.363 0.853 1.017 0.865 1.661 0.035 0.187-0.011 0.386-0.011 0.573-0.059 0.585-0.363 1.146-0.865 1.473-0.527 0.351-1.205 0.409-1.824 0.28-0.543-0.119-0.995-0.441-1.282-0.88l-0.005-0.008c-0.339-0.538-0.397-1.217-0.269-1.836 0.117-0.585 0.515-1.123 1.052-1.38 0.2-0.097 0.432-0.171 0.676-0.209l0.014-0.002z"></path>
</symbol>

<symbol id="icon-docusign" viewBox="0 0 83 32">
<path d="M0.311 8.255h6c3.829 0 6.255 3.064 6.255 7.277 0 2.298-0.767 4.34-2.298 5.617-1.021 0.893-2.425 1.405-4.213 1.405h-5.743v-14.298zM5.865 20.064c2.745 0 3.765-1.66 3.765-4.468s-1.213-4.787-3.702-4.787h-2.745v9.319h2.681v-0.064zM13.013 17.447c0-3.064 2.17-5.425 5.362-5.425s5.361 2.362 5.361 5.425c0 3.064-2.17 5.426-5.361 5.426s-5.362-2.426-5.362-5.426zM20.928 17.447c0-1.979-0.957-3.383-2.617-3.383s-2.617 1.34-2.617 3.383 0.893 3.319 2.617 3.319c1.723 0 2.617-1.34 2.617-3.319zM24.247 17.447c0-3.064 1.979-5.425 5.107-5.425 2.68 0 4.277 1.532 4.659 3.766h-2.681c-0.192-0.893-0.893-1.596-1.851-1.596-1.66 0-2.489 1.277-2.489 3.255 0 1.915 0.766 3.255 2.425 3.255 1.085 0 1.851-0.574 2.043-1.723h2.681c-0.191 2.17-1.851 3.893-4.595 3.893-3.255-0.063-5.298-2.425-5.298-5.425zM41.29 22.553v-1.213h-0.064c-0.702 0.958-1.468 1.469-2.936 1.469-2.298 0-3.575-1.468-3.575-3.702v-6.83h2.681v6.383c0 1.213 0.511 1.851 1.723 1.851 1.277 0 2.043-0.957 2.043-2.298v-5.936h2.745v10.213h-2.617v0.063zM57.12 8.319h2.745v2.553h-2.745v-2.553zM57.12 12.277h2.745v10.213h-2.745v-10.213zM60.949 22.809h2.681c0.191 0.638 0.83 1.149 2.043 1.149 1.531 0 2.297-0.766 2.297-2.107v-1.149h-0.064c-0.574 0.702-1.404 1.213-2.68 1.213-2.299 0-4.533-1.787-4.533-4.915 0-3.064 1.851-4.979 4.404-4.979 1.277 0 2.235 0.511 2.809 1.34h0.064v-1.085h2.617v9.447c0 1.468-0.447 2.425-1.213 3.128-0.83 0.829-2.17 1.149-3.701 1.149-2.681 0-4.405-1.149-4.724-3.191zM68.162 16.936c0-1.468-0.83-2.745-2.425-2.745-1.405 0-2.299 1.085-2.299 2.809s0.893 2.745 2.299 2.745c1.723 0 2.425-1.277 2.425-2.809zM74.481 13.681c0.766-1.085 1.723-1.66 3.063-1.66 2.107 0 3.511 1.597 3.511 3.831v6.702h-2.745v-6.255c0-1.085-0.638-1.851-1.787-1.851-1.213 0-2.107 0.957-2.107 2.362v5.808h-2.617v-10.213h2.681v1.277zM50.928 13.936c-2.107-0.447-3.063-0.829-3.063-1.979 0-1.021 1.021-1.66 2.553-1.66 1.404 0 2.489 0.639 2.744 1.979h2.809c-0.319-2.745-2.361-4.277-5.553-4.277s-5.489 1.468-5.489 4.277c0 3 2.362 3.638 4.915 4.213 2.17 0.511 3.511 0.766 3.511 2.17 0 1.341-1.277 1.851-2.745 1.851-2.042 0-3-0.702-3.191-2.425h-2.808c0.127 3 2.297 4.723 6.191 4.723 3.191 0 5.553-1.596 5.553-4.532-0.064-3-2.49-3.702-5.426-4.34zM82.205 14.191c-0.574 0-1.085-0.511-1.085-1.085s0.511-1.085 1.085-1.085c0.575 0 1.085 0.511 1.085 1.085s-0.511 1.085-1.085 1.085zM82.205 12.213c-0.511 0-0.893 0.383-0.893 0.893 0 0.511 0.383 0.894 0.893 0.894s0.893-0.383 0.893-0.893c0-0.511-0.383-0.893-0.893-0.893z"></path>
<path d="M81.823 12.532h0.383c0.127 0 0.255 0 0.319 0.064s0.128 0.128 0.128 0.255c0 0.191-0.128 0.255-0.192 0.319l0.256 0.447h-0.256l-0.191-0.383h-0.255v0.383h-0.192v-1.085zM82.015 12.724v0.319h0.191c0.064 0 0.191 0 0.191-0.191 0 0 0-0.128-0.064-0.128h-0.319z"></path>
</symbol>

<symbol id="icon-tesla" viewBox="0 0 102 32">
<path  d="M87.354 15.291v8.035h2.568v-5.356h9.393v5.356h2.568v-8.035h-14.529zM89.629 12.686h9.906c1.394-0.257 2.385-1.504 2.678-2.678h-15.262c0.293 1.173 1.321 2.385 2.678 2.678zM79.539 23.326c1.284-0.551 1.981-1.505 2.275-2.605h-11.557v-10.676h-2.605v13.281h11.887zM48.391 12.649h9.172c1.394-0.403 2.531-1.467 2.825-2.605h-14.529v7.851h11.887v2.751h-9.319c-1.467 0.403-2.715 1.394-3.339 2.678h15.226v-8.034h-11.887l-0.037-2.641zM25.791 12.685h9.907c1.393-0.257 2.421-1.504 2.678-2.678h-15.3c0.293 1.173 1.321 2.385 2.715 2.678zM25.791 17.932h9.907c1.393-0.257 2.421-1.505 2.678-2.679h-15.3c0.293 1.174 1.321 2.385 2.715 2.679zM25.791 23.325h9.907c1.393-0.257 2.421-1.505 2.678-2.679h-15.3c0.293 1.174 1.321 2.421 2.715 2.678zM0 10.045c0.293 1.173 1.321 2.348 2.678 2.641h4.183l0.22 0.073v10.529h2.605v-10.529l0.22-0.073h4.183c1.394-0.367 2.385-1.467 2.679-2.641v-0.037l-16.767 0.036z"></path>
</symbol>

<symbol id="icon-maze" viewBox="0 0 95 32">
<path d="M1.626 23.901c-1.004-0.992-1.626-2.37-1.626-3.892s0.622-2.9 1.625-3.891l0.001-0.001 5.888-5.839c1.833-1.817 4.628-2.098 6.759-0.843 0.659 0.388 0.653 1.279 0.111 1.816s-1.427 0.491-2.163 0.277c-0.234-0.071-0.503-0.111-0.781-0.111-0.765 0-1.459 0.308-1.963 0.807l0-0-5.889 5.839c-0.502 0.496-0.813 1.185-0.813 1.946s0.311 1.45 0.813 1.946l0 0c0.504 0.498 1.197 0.806 1.963 0.806s1.459-0.308 1.963-0.806l-0 0 11.777-11.677c2.168-2.149 5.683-2.149 7.851 0l5.889 5.839c1.004 0.992 1.626 2.37 1.626 3.892s-0.622 2.9-1.625 3.891l-0.001 0.001c-2.168 2.149-5.683 2.149-7.851 0l-1.963-1.947-2.453 2.433c-1.833 1.817-4.629 2.098-6.759 0.843-0.659-0.388-0.653-1.279-0.111-1.816s1.427-0.491 2.163-0.277c0.234 0.071 0.503 0.111 0.781 0.111 0.765 0 1.459-0.308 1.963-0.807l-0 0 2.523-2.502c0.486-0.48 1.155-0.777 1.893-0.777s1.406 0.297 1.893 0.777l-0-0 2.033 2.015c0.504 0.498 1.197 0.806 1.963 0.806s1.459-0.308 1.963-0.806l-0 0c0.502-0.496 0.813-1.185 0.813-1.946s-0.311-1.45-0.813-1.946l-0-0-5.889-5.839c-0.504-0.498-1.197-0.806-1.963-0.806s-1.459 0.308-1.963 0.806l0-0-11.776 11.677c-2.169 2.149-5.683 2.149-7.851 0z"></path>
<path d="M56.83 11.787c-1.364 0-2.398 0.488-3.080 1.465-0.599-0.977-1.55-1.465-2.811-1.465-1.302 0-2.253 0.447-2.873 1.363v-1.079h-2.667v10.177h2.667v-5.719c0-1.486 0.765-2.3 1.943-2.3 1.095 0 1.736 0.713 1.736 1.933v6.087h2.667v-5.72c0-1.486 0.703-2.3 1.922-2.3 1.095 0 1.736 0.713 1.736 1.933v6.087h2.667v-6.269c0-2.545-1.53-4.193-3.907-4.193zM70.649 13.272c-0.806-0.997-1.923-1.485-3.369-1.485-1.385 0-2.563 0.529-3.555 1.567-0.972 1.038-1.468 2.3-1.468 3.807s0.496 2.788 1.468 3.827c0.992 1.037 2.17 1.547 3.555 1.547 1.447 0 2.563-0.489 3.369-1.487v1.201h2.666v-10.177h-2.666v1.201zM65.729 19.236c-0.537-0.55-0.805-1.242-0.805-2.076s0.269-1.527 0.806-2.056c0.537-0.549 1.219-0.814 2.046-0.814s1.509 0.265 2.047 0.814c0.558 0.529 0.827 1.221 0.827 2.056s-0.269 1.527-0.827 2.076c-0.537 0.529-1.22 0.793-2.047 0.793s-1.509-0.264-2.047-0.793zM83.153 13.822v-1.751h-7.751v2.462h4.154l-4.361 5.964v1.75h8.165v-2.463h-4.589l4.382-5.963zM94.508 18.239c0.062-0.387 0.103-0.733 0.103-1.079 0-1.527-0.495-2.789-1.488-3.827-0.971-1.038-2.233-1.547-3.741-1.547-1.591 0-2.914 0.509-3.927 1.547-1.013 1.017-1.529 2.3-1.529 3.827 0 1.547 0.517 2.829 1.551 3.847s2.397 1.527 4.113 1.527c1.984 0 3.493-0.733 4.506-2.178l-2.149-1.221c-0.517 0.672-1.302 1.017-2.315 1.017-1.591 0-2.563-0.631-2.914-1.913h7.792zM86.675 16.203c0.31-1.303 1.281-2.056 2.707-2.056 1.219 0 2.253 0.672 2.563 2.056h-5.271z"></path>
</symbol>

<symbol id="icon-discord" viewBox="0 0 161 32">
<path d="M33.988 3.072c-2.392-1.15-5.169-2.054-8.080-2.572l-0.198-0.029c-0.326 0.578-0.681 1.302-1 2.045l-0.060 0.158c-1.379-0.222-2.968-0.348-4.587-0.348s-3.208 0.127-4.759 0.37l0.172-0.022c-0.381-0.896-0.74-1.619-1.134-2.321l0.061 0.118c-3.111 0.548-5.89 1.453-8.481 2.692l0.196-0.085c-5.239 7.918-6.658 15.638-5.948 23.247 3.475 2.594 6.842 4.169 10.152 5.202 0.761-1.034 1.483-2.207 2.108-3.437l0.066-0.144c-1.324-0.508-2.452-1.068-3.518-1.719l0.094 0.053c0.287-0.214 0.568-0.436 0.84-0.664 6.601 3.087 13.775 3.087 20.297 0 0.275 0.229 0.555 0.452 0.84 0.664-0.974 0.599-2.104 1.161-3.284 1.62l-0.145 0.050c0.69 1.374 1.413 2.547 2.223 3.651l-0.049-0.070c3.313-1.032 6.683-2.607 10.158-5.205 0.833-8.823-1.423-16.471-5.964-23.253zM13.396 21.644c-1.981 0-3.607-1.85-3.607-4.104s1.591-4.106 3.607-4.106c2.017 0 3.642 1.85 3.608 4.106 0.003 2.253-1.591 4.104-3.607 4.104zM26.727 21.644c-1.982 0-3.608-1.85-3.608-4.104s1.591-4.106 3.608-4.106c2.016 0 3.641 1.85 3.607 4.106 0 2.253-1.591 4.104-3.607 4.104zM53.916 8.394h8.615c2.077 0 3.832 0.331 5.271 0.992 1.435 0.661 2.513 1.583 3.225 2.762s1.073 2.531 1.073 4.052c0 1.489-0.373 2.84-1.117 4.048-0.744 1.212-1.878 2.169-3.402 2.875s-3.411 1.061-5.668 1.061h-7.996v-15.79zM61.824 20.171c1.399 0 2.475-0.358 3.225-1.070 0.751-0.715 1.127-1.688 1.127-2.923 0-1.144-0.334-2.056-1.003-2.739-0.668-0.684-1.682-1.029-3.036-1.029h-2.695v7.761h2.382zM84.998 24.165c-1.193-0.315-2.27-0.774-3.225-1.376v-3.746c0.723 0.571 1.691 1.042 2.906 1.412 1.214 0.368 2.389 0.552 3.525 0.552 0.53 0 0.932-0.071 1.202-0.213 0.272-0.141 0.408-0.312 0.408-0.508 0-0.007 0-0.016 0-0.024 0-0.21-0.084-0.401-0.221-0.54l0 0c-0.149-0.152-0.436-0.278-0.862-0.384l-2.65-0.609c-1.518-0.36-2.595-0.86-3.235-1.502-0.64-0.638-0.96-1.476-0.96-2.514 0-0.873 0.278-1.631 0.84-2.279 0.559-0.648 1.354-1.148 2.386-1.499 1.032-0.355 2.237-0.532 3.624-0.532 1.237 0 2.369 0.136 3.401 0.407s1.884 0.616 2.563 1.037v3.543c-0.695-0.423-1.49-0.754-2.399-1.005-0.83-0.235-1.784-0.371-2.769-0.371-0.009 0-0.018 0-0.028 0h0.001c-1.386 0-2.077 0.242-2.077 0.722 0 0.226 0.107 0.393 0.322 0.506s0.609 0.229 1.18 0.351l2.209 0.406c1.443 0.254 2.519 0.703 3.225 1.341s1.061 1.583 1.061 2.833c0 1.37-0.584 2.456-1.755 3.262s-2.83 1.208-4.983 1.208c-0.001 0-0.003 0-0.004 0-1.31 0-2.58-0.174-3.787-0.5l0.102 0.023zM100.638 23.691c-1.265-0.632-2.221-1.489-2.859-2.572s-0.959-2.301-0.959-3.656c0-1.353 0.331-2.566 0.994-3.633s1.635-1.904 2.916-2.513c1.281-0.61 2.812-0.913 4.595-0.913 2.209 0 4.042 0.474 5.501 1.421v4.13c-0.517-0.36-1.114-0.659-1.751-0.866l-0.048-0.014c-0.642-0.215-1.38-0.339-2.148-0.339-0.018 0-0.036 0-0.054 0l0.003-0c-1.369 0-2.439 0.254-3.212 0.767s-1.161 1.18-1.161 2.008c0 0.812 0.376 1.476 1.127 1.998 0.751 0.52 1.84 0.78 3.27 0.78 0.735 0 1.461-0.11 2.177-0.326 0.713-0.219 1.329-0.487 1.843-0.803v3.993c-1.618 0.993-3.496 1.489-5.633 1.489-1.799-0.006-3.333-0.322-4.598-0.953zM116.335 23.691c-1.275-0.632-2.247-1.496-2.917-2.595-0.668-1.099-1.006-2.324-1.006-3.677s0.334-2.563 1.006-3.624c0.672-1.060 1.639-1.892 2.907-2.494 1.265-0.602 2.776-0.904 4.528-0.904s3.263 0.301 4.529 0.904c1.265 0.602 2.232 1.428 2.894 2.482s0.994 2.263 0.994 3.633c0 1.353-0.331 2.579-0.994 3.677s-1.632 1.962-2.907 2.595c-1.274 0.631-2.78 0.947-4.519 0.947s-3.244-0.312-4.516-0.944zM123.047 19.688c0.537-0.548 0.808-1.273 0.808-2.176s-0.268-1.622-0.808-2.153c-0.536-0.535-1.269-0.802-2.196-0.802-0.944 0-1.683 0.267-2.222 0.802-0.536 0.536-0.805 1.252-0.805 2.153s0.268 1.628 0.805 2.176c0.537 0.548 1.278 0.824 2.222 0.824 0.927-0.003 1.66-0.277 2.196-0.824zM142.543 11.238v4.872c-0.561-0.376-1.288-0.564-2.186-0.564-1.177 0-2.087 0.364-2.718 1.092-0.633 0.729-0.95 1.864-0.95 3.398v4.152h-5.412v-13.199h5.302v4.196c0.294-1.534 0.77-2.665 1.427-3.398 0.653-0.728 1.498-1.092 2.527-1.092 0.779 0 1.449 0.181 2.010 0.541zM160.525 7.944v16.245h-5.413v-2.956c-0.457 1.112-1.151 1.96-2.086 2.54-0.935 0.577-2.089 0.866-3.459 0.866-1.224 0-2.291-0.302-3.203-0.911s-1.615-1.445-2.111-2.504c-0.492-1.061-0.742-2.26-0.742-3.601-0.016-1.383 0.246-2.623 0.786-3.722 0.536-1.099 1.297-1.957 2.275-2.572s2.096-0.925 3.349-0.925c2.579 0 4.308 1.144 5.191 3.43v-5.889h5.413zM154.305 19.598c0.552-0.548 0.827-1.261 0.827-2.131 0-0.841-0.268-1.528-0.805-2.054s-1.272-0.79-2.197-0.79c-0.912 0-1.64 0.268-2.187 0.803s-0.817 1.228-0.817 2.086c0 0.856 0.271 1.557 0.817 2.099s1.266 0.811 2.165 0.811c0.912-0.003 1.644-0.277 2.197-0.824zM76.66 12.393c1.491 0 2.698-1.108 2.698-2.475s-1.208-2.475-2.698-2.475-2.697 1.109-2.697 2.475c0 1.368 1.208 2.475 2.697 2.475zM73.96 14.099c1.654 0.728 3.704 0.76 5.396 0v10.16h-5.396v-10.16z"></path>
</symbol>

<symbol id="icon-send" viewBox="0 0 32 32">
<path d="M30.276 1.724c0.242 0.241 0.391 0.575 0.391 0.943 0 0.158-0.027 0.309-0.078 0.449l0.003-0.009-9.333 26.667c-0.188 0.524-0.68 0.892-1.258 0.892-0.54 0-1.005-0.321-1.215-0.783l-0.003-0.008-5.125-11.532-11.532-5.125c-0.47-0.213-0.791-0.678-0.791-1.218 0-0.578 0.368-1.071 0.883-1.255l0.009-0.003 26.667-9.333c0.131-0.047 0.282-0.075 0.44-0.075 0.368 0 0.702 0.149 0.943 0.391v0zM16.258 17.628l3.595 8.089 6.293-17.977-9.888 9.888zM24.258 5.856l-17.975 6.292 8.089 3.595 9.89-9.886z"></path>
</symbol>

<symbol id="icon-youtube" viewBox="0 0 44 32">
<path  d="M38.567 1.231c1.829 0.53 3.232 1.965 3.706 3.776l0.008 0.037c0.879 3.362 0.879 10.383 0.879 10.383s0 7.015-0.879 10.383c-0.483 1.848-1.887 3.284-3.679 3.804l-0.038 0.009c-3.271 0.901-16.411 0.901-16.411 0.901s-13.137 0-16.414-0.901c-1.83-0.531-3.232-1.967-3.706-3.778l-0.008-0.037c-0.876-3.36-0.876-10.378-0.876-10.378s0-7.020 0.876-10.383c0.483-1.849 1.886-3.286 3.679-3.806l0.038-0.009c3.271-0.901 16.411-0.901 16.411-0.901s13.137 0 16.414 0.903zM18.215 9.519v13.127l10.503-6.565-10.503-6.562z"></path>
</symbol>

<symbol id="icon-insta" viewBox="0 0 32 32">
<path  d="M16 0.83c-4.119 0-4.636 0.018-6.254 0.091-1.614 0.075-2.716 0.331-3.68 0.706-1.053 0.402-1.95 0.997-2.689 1.748l-0.001 0.001c-0.752 0.739-1.347 1.635-1.732 2.635l-0.017 0.051c-0.377 0.965-0.633 2.068-0.706 3.682-0.071 1.618-0.091 2.137-0.091 6.258 0 4.119 0.018 4.635 0.091 6.252 0.075 1.614 0.331 2.716 0.706 3.682 0.388 0.997 0.907 1.844 1.749 2.688 0.843 0.843 1.689 1.364 2.686 1.751 0.965 0.373 2.068 0.631 3.682 0.704 1.618 0.073 2.135 0.092 6.256 0.092s4.635-0.018 6.254-0.092c1.614-0.073 2.718-0.329 3.684-0.704 1.051-0.402 1.946-0.998 2.683-1.75l0.001-0.001c0.844-0.844 1.364-1.689 1.751-2.688 0.373-0.965 0.629-2.068 0.706-3.68 0.071-1.62 0.091-2.135 0.091-6.256 0-4.119-0.018-4.636-0.091-6.254-0.076-1.616-0.332-2.718-0.706-3.684-0.403-1.051-0.999-1.946-1.75-2.683l-0.001-0.001c-0.738-0.752-1.634-1.348-2.634-1.732l-0.051-0.017c-0.971-0.377-2.073-0.633-3.689-0.708-1.618-0.073-2.133-0.091-6.254-0.091h0.005zM14.64 3.564h1.362c4.050 0 4.53 0.014 6.13 0.087 1.479 0.068 2.283 0.315 2.816 0.523 0.709 0.274 1.214 0.604 1.744 1.134 0.532 0.53 0.86 1.036 1.136 1.744 0.206 0.533 0.455 1.337 0.521 2.816 0.073 1.6 0.089 2.080 0.089 6.128 0 4.050-0.016 4.53-0.089 6.128-0.068 1.479-0.315 2.283-0.521 2.816-0.276 0.709-0.604 1.212-1.136 1.742-0.477 0.492-1.059 0.879-1.71 1.125l-0.032 0.011c-0.535 0.208-1.339 0.455-2.818 0.523-1.6 0.071-2.080 0.089-6.13 0.089-4.052 0-4.532-0.018-6.13-0.089-1.479-0.068-2.283-0.316-2.818-0.523-0.684-0.257-1.267-0.644-1.743-1.135l-0.001-0.001c-0.492-0.477-0.879-1.059-1.125-1.71l-0.011-0.032c-0.208-0.533-0.455-1.337-0.523-2.816-0.071-1.6-0.087-2.080-0.087-6.132s0.014-4.528 0.089-6.128c0.066-1.479 0.313-2.283 0.521-2.816 0.276-0.709 0.604-1.214 1.136-1.746 0.53-0.53 1.036-0.859 1.744-1.134 0.533-0.21 1.339-0.455 2.818-0.524 1.399-0.062 1.941-0.082 4.768-0.085v0.005zM24.098 6.082c-1.005 0-1.82 0.815-1.82 1.82s0.815 1.82 1.82 1.82v0c1.005 0 1.82-0.815 1.82-1.82s-0.815-1.82-1.82-1.82v0zM16.004 8.21c-4.303 0-7.791 3.488-7.791 7.791s3.488 7.791 7.791 7.791v0c4.303 0 7.791-3.488 7.791-7.791s-3.488-7.791-7.791-7.791v0zM16.004 10.944c2.793 0 5.057 2.264 5.057 5.057s-2.264 5.057-5.057 5.057v0c-2.793 0-5.058-2.264-5.058-5.058s2.264-5.058 5.058-5.058v0z"></path>
</symbol>

<symbol id="icon-twit" viewBox="0 0 37 32">
<path  d="M17.189 9.154l0.078 1.266-1.28-0.155c-4.651-0.597-8.72-2.608-12.171-5.991l-1.691-1.68-0.434 1.241c-0.919 2.763-0.331 5.68 1.589 7.643 1.022 1.086 0.791 1.239-0.974 0.594-0.613-0.206-1.15-0.361-1.202-0.283-0.178 0.181 0.434 2.53 0.921 3.461 0.665 1.291 2.021 2.555 3.504 3.305l1.255 0.594-1.486 0.025c-1.431 0-1.481 0.025-1.328 0.569 0.512 1.678 2.533 3.461 4.784 4.235l1.584 0.542-1.381 0.825c-1.969 1.151-4.325 1.853-6.841 1.911l-0.017 0c-1.15 0.027-2.096 0.13-2.096 0.206 0 0.261 3.12 1.707 4.937 2.274 5.449 1.68 11.92 0.955 16.782-1.911 3.451-2.041 6.905-6.094 8.519-10.021 0.869-2.091 1.737-5.913 1.737-7.749 0-1.189 0.078-1.342 1.509-2.761 0.846-0.827 1.639-1.73 1.792-1.989 0.256-0.491 0.231-0.491-1.074-0.053-2.174 0.775-2.48 0.672-1.406-0.491 0.793-0.825 1.737-2.325 1.737-2.763 0-0.078-0.382 0.053-0.816 0.286-0.462 0.258-1.486 0.645-2.251 0.878l-1.383 0.439-1.253-0.853c-0.69-0.464-1.662-0.983-2.174-1.136-1.31-0.361-3.303-0.311-4.48 0.101-3.198 1.163-5.218 4.16-4.987 7.438z"></path>
</symbol>

<symbol id="icon-ball" viewBox="0 0 32 32">
<path  d="M31.17 15.979c-0 2.129-0.439 4.156-1.231 5.995l0.038-0.099c-1.192 2.753-3.078 5.015-5.441 6.631l-0.052 0.034c-0.74 0.505-1.587 0.972-2.478 1.357l-0.099 0.038c-1.744 0.753-3.774 1.19-5.906 1.19s-4.162-0.438-6.005-1.228l0.099 0.038c-0.99-0.423-1.837-0.89-2.631-1.43l0.054 0.034c-2.415-1.651-4.3-3.913-5.455-6.566l-0.038-0.099c-0.758-1.739-1.199-3.766-1.199-5.895 0-1.080 0.113-2.134 0.329-3.149l-0.018 0.099c0.43-2.057 1.224-3.876 2.318-5.474l-0.033 0.052c1.11-1.622 2.471-2.981 4.043-4.055l0.053-0.034c1.547-1.060 3.367-1.853 5.328-2.264l0.098-0.017c0.917-0.195 1.97-0.307 3.049-0.307 2.134 0 4.166 0.437 6.011 1.227l-0.1-0.038c2.757 1.187 5.023 3.072 6.64 5.436l0.034 0.052c1.061 1.546 1.855 3.365 2.267 5.324l0.017 0.098c0.204 0.996 0.308 2.023 0.308 3.049zM10.471 4.277c-3.625 1.737-6.276 5.008-7.135 8.949l-0.016 0.086c0.341 0.004 5.742 0.071 11.961-1.579-1.654-2.902-3.244-5.336-4.962-7.672l0.152 0.216zM16.356 13.724c-6.67 1.995-13.072 1.851-13.301 1.842-0.004 0.139-0.011 0.274-0.011 0.412 0 0.005 0 0.012 0 0.018 0 3.324 1.26 6.354 3.329 8.638l-0.010-0.011c-0.004-0.007 3.541-6.288 10.533-8.546 0.169-0.057 0.34-0.107 0.51-0.155-0.443-1.008-0.795-1.73-1.165-2.441l0.115 0.242zM24.555 6.27c-2.263-2.003-5.256-3.227-8.536-3.227-0.007 0-0.013 0-0.020 0h0.001c-1.054 0-2.075 0.126-3.054 0.363 0.196 0.26 2.628 3.484 4.844 7.547 4.889-1.831 6.732-4.636 6.764-4.683zM18.29 18.066l-0.085 0.028c-7.644 2.661-10.14 8.023-10.169 8.082 2.172 1.708 4.947 2.74 7.962 2.74 0.001 0 0.002 0 0.002 0h-0c0.006 0 0.013 0 0.019 0 1.82 0 3.552-0.377 5.122-1.056l-0.084 0.032c-0.192-1.131-0.946-5.092-2.768-9.824zM23.239 26.708c2.909-1.977 4.951-5.044 5.542-8.602l0.010-0.075c-0.267-0.087-3.893-1.232-8.075-0.564 1.7 4.663 2.391 8.462 2.523 9.241zM18.788 12.88c0.303 0.586 0.686 1.424 1.040 2.277l0.099 0.269c4.452-0.56 8.836 0.382 9.024 0.42-0.027-3.084-1.136-5.904-2.965-8.105l0.017 0.021c-0.023 0.036-2.101 3.031-7.218 5.118z"></path>
</symbol>
</defs>
</svg>
